[h264 @ 0x56016ffb4e00] Reinit context to 1280x720, pix_fmt: yuv420p
Input #0, mov,mp4,m4a,3gp,3g2,mj2, from '/var/www/html/project/media/video/original/VID_20241224_074428_973.mp4':
  Metadata:
    major_brand     : mp42
    minor_version   : 0
    compatible_brands: isommp42
    creation_time   : 2024-12-23T17:42:52.000000Z
    com.android.version: 13
  Duration: 00:00:14.43, start: 0.000000, bitrate: 8044 kb/s
    Stream #0:0(eng): Video: h264 (High), 1 reference frame (avc1 / 0x31637661), yuv420p(tv, bt709, left), 1280x720, 7932 kb/s, 30 fps, 30 tbr, 90k tbn, 180k tbc (default)
    Metadata:
      creation_time   : 2024-12-24T06:44:52.000000Z
      handler_name    : VideoHandle
    Stream #0:1(eng): Audio: aac (LC) (mp4a / 0x6134706D), 48000 Hz, stereo, fltp, 125 kb/s (default)
    Metadata:
      creation_time   : 2024-12-24T06:44:52.000000Z
      handler_name    : SoundHandle
[h264 @ 0x56016ffc6bc0] Reinit context to 1280x720, pix_fmt: yuv420p
Input #1, mov,mp4,m4a,3gp,3g2,mj2, from '/var/www/html/project/static/images/templates/Codino.mp4':
  Metadata:
    major_brand     : mp42
    minor_version   : 1
    compatible_brands: isommp41mp42
    creation_time   : 2021-07-11T07:02:58.000000Z
  Duration: 00:00:02.00, start: 0.000000, bitrate: 1007 kb/s
    Stream #1:0(ita): Audio: aac (LC) (mp4a / 0x6134706D), 44100 Hz, stereo, fltp, 102 kb/s (default)
    Metadata:
      creation_time   : 2021-07-11T07:02:58.000000Z
      handler_name    : Core Media Audio
    Stream #1:1(und): Video: h264 (High), 1 reference frame (avc1 / 0x31637661), yuv420p(tv, bt709, progressive, left), 1280x720 [SAR 1:1 DAR 16:9], 813 kb/s, 25 fps, 25 tbr, 25k tbn, 50k tbc (default)
    Metadata:
      creation_time   : 2021-07-11T07:02:58.000000Z
      handler_name    : Core Media Video
[Parsed_scale_0 @ 0x5601700636c0] w:1280 h:720 flags:'bilinear' interl:0
[Parsed_scale_2 @ 0x56017004a100] w:1280 h:720 flags:'bilinear' interl:0
Stream mapping:
  Stream #0:0 (h264) -> scale
  Stream #0:1 (aac) -> concat:in0:a0
  Stream #1:0 (aac) -> concat:in1:a0
  Stream #1:1 (h264) -> scale
  concat:out:v0 -> Stream #0:0 (libx264)
  concat:out:a0 -> Stream #0:1 (aac)
Press [q] to stop, [?] for help
[h264 @ 0x56017007df80] Reinit context to 1280x720, pix_fmt: yuv420p
[h264 @ 0x5601704fdc80] Reinit context to 1280x720, pix_fmt: yuv420p
[Parsed_scale_0 @ 0x56017008ca40] w:1280 h:720 flags:'bilinear' interl:0
[Parsed_scale_2 @ 0x56017006f0c0] w:1280 h:720 flags:'bilinear' interl:0
[graph 0 input from stream 0:0 @ 0x5601712daa80] w:1280 h:720 pixfmt:yuv420p tb:1/90000 fr:30/1 sar:0/1 sws_param:flags=2
[graph 0 input from stream 1:1 @ 0x56017006ba80] w:1280 h:720 pixfmt:yuv420p tb:1/25000 fr:25/1 sar:1/1 sws_param:flags=2
[graph_0_in_0_1 @ 0x56017008e2c0] tb:1/48000 samplefmt:fltp samplerate:48000 chlayout:0x3
[graph_0_in_1_0 @ 0x5601712e0480] tb:1/44100 samplefmt:fltp samplerate:44100 chlayout:0x3
[Parsed_concat_4 @ 0x5601712dacc0] auto-inserting filter 'auto_resampler_0' between the filter 'graph_0_in_1_0' and the filter 'Parsed_concat_4'
[Parsed_scale_0 @ 0x56017008ca40] w:1280 h:720 fmt:yuv420p sar:0/1 -> w:1280 h:720 fmt:yuv420p sar:0/1 flags:0x2
[Parsed_setsar_1 @ 0x56017008acc0] w:1280 h:720 sar:0/1 dar:16/9 -> sar:1/1 dar:16/9
[Parsed_scale_2 @ 0x56017006f0c0] w:1280 h:720 fmt:yuv420p sar:1/1 -> w:1280 h:720 fmt:yuv420p sar:1/1 flags:0x2
[Parsed_setsar_3 @ 0x56017006a080] w:1280 h:720 sar:1/1 dar:16/9 -> sar:1/1 dar:16/9
[auto_resampler_0 @ 0x5601700a1980] ch:2 chl:stereo fmt:fltp r:44100Hz -> ch:2 chl:stereo fmt:fltp r:48000Hz
[libx264 @ 0x560170054280] using SAR=1/1
[libx264 @ 0x560170054280] using cpu capabilities: MMX2 SSE2Fast SSSE3 SSE4.2 AVX FMA3 BMI2 AVX2
[libx264 @ 0x560170054280] profile High, level 3.1
[libx264 @ 0x560170054280] 264 - core 155 r2917 0a84d98 - H.264/MPEG-4 AVC codec - Copyleft 2003-2018 - http://www.videolan.org/x264.html - options: cabac=1 ref=1 deblock=1:0:0 analyse=0x3:0x113 me=hex subme=2 psy=1 psy_rd=1.00:0.00 mixed_ref=0 me_range=16 chroma_me=1 trellis=0 8x8dct=1 cqm=0 deadzone=21,11 fast_pskip=1 chroma_qp_offset=0 threads=22 lookahead_threads=5 sliced_threads=0 nr=0 decimate=1 interlaced=0 bluray_compat=0 constrained_intra=0 bframes=3 b_pyramid=2 b_adapt=1 b_bias=0 direct=1 weightb=1 open_gop=0 weightp=1 keyint=250 keyint_min=25 scenecut=40 intra_refresh=0 rc_lookahead=10 rc=crf mbtree=1 crf=18.0 qcomp=0.60 qpmin=0 qpmax=69 qpstep=4 ip_ratio=1.40 aq=1:1.00
Output #0, mp4, to '/var/www/html/project/media/video/watermarks/VID_20241224_074428_973.mp4':
  Metadata:
    major_brand     : mp42
    minor_version   : 0
    compatible_brands: isommp42
    com.android.version: 13
    encoder         : Lavf58.29.100
    Stream #0:0: Video: h264 (libx264), 1 reference frame (avc1 / 0x31637661), yuv420p(progressive), 1280x720 [SAR 1:1 DAR 16:9], q=-1--1, 30 fps, 15360 tbn, 30 tbc (default)
    Metadata:
      encoder         : Lavc58.54.100 libx264
    Side data:
      cpb: bitrate max/min/avg: 0/0/0 buffer size: 0 vbv_delay: -1
    Stream #0:1: Audio: aac (LC) (mp4a / 0x6134706D), 48000 Hz, stereo, fltp, delay 1024, 128 kb/s (default)
    Metadata:
      encoder         : Lavc58.54.100 aac
[Parsed_concat_4 @ 0x5601712dacc0] EOF on in0:v0, 1 streams left in segment.
[Parsed_concat_4 @ 0x5601712dacc0] EOF on in0:a0, 0 streams left in segment.
[Parsed_concat_4 @ 0x5601712dacc0] Segment finished at pts=14433411
[Parsed_concat_4 @ 0x5601712dacc0] EOF on in1:v0, 1 streams left in segment.
[Parsed_concat_4 @ 0x5601712dacc0] EOF on in1:a0, 0 streams left in segment.
[Parsed_concat_4 @ 0x5601712dacc0] Segment finished at pts=16452098
No more output streams to write to, finishing.
frame=  482 fps= 77 q=-1.0 Lsize=   11788kB time=00:00:16.46 bitrate=5863.5kbits/s speed=2.63x    
[AVIOContext @ 0x56016ffb3180] Statistics: 0 seeks, 12 writeouts
video:11520kB audio:250kB subtitle:0kB other streams:0kB global headers:0kB muxing overhead: 0.158456%
Input file #0 (/var/www/html/project/media/video/original/VID_20241224_074428_973.mp4):
  Input stream #0:0 (video): 432 packets read (14279901 bytes); 432 frames decoded; 
  Input stream #0:1 (audio): 675 packets read (225049 bytes); 675 frames decoded (691200 samples); 
  Total: 1107 packets (14504950 bytes) demuxed
Input file #1 (/var/www/html/project/static/images/templates/Codino.mp4):
  Input stream #1:0 (audio): 89 packets read (26579 bytes); 87 frames decoded (89024 samples); 
  Input stream #1:1 (video): 50 packets read (203365 bytes); 50 frames decoded; 
  Total: 139 packets (229944 bytes) demuxed
Output file #0 (/var/www/html/project/media/video/watermarks/VID_20241224_074428_973.mp4):
  Output stream #0:0 (video): 482 frames encoded; 482 packets muxed (11796184 bytes); 
  Output stream #0:1 (audio): 772 frames encoded (789701 samples); 773 packets muxed (255773 bytes); 
  Total: 1255 packets (12051957 bytes) muxed
[AVIOContext @ 0x56017007ad40] Statistics: 2 seeks, 49 writeouts
[libx264 @ 0x560170054280] frame I:3     Avg QP:12.62  size: 64268
[libx264 @ 0x560170054280] frame P:170   Avg QP:18.15  size: 40803
[libx264 @ 0x560170054280] frame B:309   Avg QP:21.53  size: 15101
[libx264 @ 0x560170054280] consecutive B-frames:  8.7% 14.1% 10.0% 67.2%
[libx264 @ 0x560170054280] mb I  I16..4: 40.6% 18.5% 40.8%
[libx264 @ 0x560170054280] mb P  I16..4:  7.9% 15.7%  7.8%  P16..4: 21.6% 15.7% 13.2%  0.0%  0.0%    skip:18.2%
[libx264 @ 0x560170054280] mb B  I16..4:  2.2%  3.6%  0.6%  B16..8: 31.0% 14.5%  2.6%  direct:16.7%  skip:28.9%  L0:39.2% L1:38.2% BI:22.6%
[libx264 @ 0x560170054280] 8x8 transform intra:50.2% inter:44.6%
[libx264 @ 0x560170054280] coded y,uvDC,uvAC intra: 56.5% 73.0% 33.0% inter: 23.6% 46.0% 1.9%
[libx264 @ 0x560170054280] i16 v,h,dc,p: 58% 26% 10%  6%
[libx264 @ 0x560170054280] i8 v,h,dc,ddl,ddr,vr,hd,vl,hu: 29% 29% 17%  3%  4%  4%  5%  4%  5%
[libx264 @ 0x560170054280] i4 v,h,dc,ddl,ddr,vr,hd,vl,hu: 28% 22% 10%  6%  7%  7%  7%  7%  6%
[libx264 @ 0x560170054280] i8c dc,h,v,p: 42% 25% 20% 13%
[libx264 @ 0x560170054280] Weighted P-Frames: Y:5.3% UV:1.8%
[libx264 @ 0x560170054280] kb/s:5753.90
[aac @ 0x56016ffc5b00] Qavg: 3240.097
[AVIOContext @ 0x56016ffbc040] Statistics: 14766487 bytes read, 10 seeks
[AVIOContext @ 0x56017007f540] Statistics: 1530915 bytes read, 42 seeks
